<?xml version="1.0" standalone="no"?>
<!DOCTYPE svg PUBLIC "-//W3C//DTD SVG 20010904//EN"
 "http://www.w3.org/TR/2001/REC-SVG-20010904/DTD/svg10.dtd">
<svg version="1.0" xmlns="http://www.w3.org/2000/svg"
 width="70.000000pt" height="70.000000pt" viewBox="0 0 70.000000 70.000000"
 preserveAspectRatio="xMidYMid meet">
<metadata>
Created by potrace 1.14, written by Peter Selinger 2001-2017
</metadata>
<g transform="translate(0.000000,70.000000) scale(0.100000,-0.100000)"
fill="#000000" stroke="none">
<path d="M79 625 c-1 -5 -1 -13 0 -17 1 -7 -14 -12 -31 -9 -6 1 -21 -32 -23
-54 -1 -5 4 -16 9 -24 8 -11 8 -13 0 -8 -7 4 -15 0 -18 -9 -3 -8 -2 -13 2 -10
5 3 8 -88 8 -202 -1 -169 2 -209 14 -224 14 -18 16 -17 35 12 11 16 25 30 32
30 6 0 15 5 19 12 5 7 3 8 -5 4 -15 -10 -11 25 4 36 7 5 6 8 0 8 -12 0 -12 70
-1 89 4 6 3 11 -2 11 -14 0 -10 34 6 46 9 6 24 9 34 6 20 -5 51 16 42 29 -3 5
-2 9 3 10 4 0 18 2 31 5 13 2 33 -3 45 -11 12 -8 16 -15 10 -15 -8 0 -9 -9 -3
-29 4 -16 5 -33 2 -37 -4 -4 -2 -5 3 -1 20 11 38 -11 40 -49 3 -49 1 -47 25
-34 14 8 19 19 16 40 -2 21 4 35 23 52 20 19 23 19 11 3 -14 -18 -14 -19 2 -7
16 13 18 35 5 48 -4 4 -2 14 5 21 9 11 9 16 1 21 -8 5 -6 15 7 32 16 21 20 22
20 7 0 -10 4 -16 8 -13 10 6 9 -30 -1 -40 -10 -11 -8 -24 4 -24 5 0 7 5 3 12
-4 7 -3 8 5 4 7 -5 9 -12 3 -19 -11 -16 -8 -42 5 -40 13 3 37 -52 29 -65 -3
-5 3 -17 14 -27 19 -17 26 -12 21 17 0 5 3 8 7 8 4 0 8 12 8 28 -1 16 4 26 12
24 6 -1 12 3 12 9 0 5 5 7 11 4 7 -5 9 3 6 22 -5 29 14 69 26 56 6 -6 11 12 8
30 0 4 4 7 9 7 7 0 7 6 2 18 -5 9 -6 26 -2 37 4 11 4 28 -1 37 -5 9 -5 18 0
20 5 2 3 12 -5 22 -8 12 -14 15 -14 7 0 -11 -3 -11 -16 0 -15 12 -16 11 -9
-10 4 -13 3 -21 -1 -19 -11 6 -45 -28 -36 -36 3 -3 -1 -6 -9 -6 -11 0 -11 -2
1 -10 8 -5 10 -10 5 -10 -6 0 -11 -17 -10 -37 0 -27 -4 -38 -15 -38 -10 0 -17
14 -20 48 -4 28 -2 47 4 47 5 0 0 9 -12 20 -12 11 -26 20 -31 20 -6 0 -8 6 -5
14 3 8 0 17 -7 22 -8 5 -10 3 -4 -7 8 -12 6 -12 -8 0 -17 13 -23 7 -18 -21 0
-4 -10 -10 -24 -14 -13 -3 -30 -13 -37 -22 -12 -16 -11 -16 7 -2 19 15 19 14
3 -11 -9 -15 -14 -30 -10 -34 4 -4 7 -19 8 -34 0 -22 -4 -27 -25 -29 -20 -1
-23 0 -11 8 12 8 13 10 1 10 -8 0 -11 3 -8 6 3 4 2 16 -4 27 -8 14 -8 18 0 13
13 -8 10 21 -3 43 -7 10 -5 12 5 7 14 -8 -7 10 -34 29 -11 8 -12 18 -5 42 4
18 12 32 16 32 22 -4 30 3 25 21 -3 11 -9 17 -14 14 -5 -3 -9 1 -9 8 0 9 -3 9
-10 -2 -5 -8 -10 -10 -10 -5 0 6 -22 10 -49 10 -30 0 -47 -4 -43 -10 3 -5 -2
-4 -11 4 -14 11 -17 11 -17 0 0 -11 -2 -11 -10 1 -7 11 -10 11 -10 2 0 -8 -5
-10 -12 -6 -18 12 -58 11 -59 -1z m91 -87 c0 5 7 9 15 9 8 0 15 -4 15 -8 0 -5
6 -6 13 -4 17 7 46 -15 29 -22 -6 -2 -9 -10 -5 -16 4 -7 8 -27 8 -44 1 -34
-22 -54 -37 -31 -5 9 -8 10 -8 1 0 -7 -13 -11 -32 -10 -37 3 -58 13 -58 28 0
6 4 7 10 4 6 -4 7 2 1 17 -6 15 -5 31 1 42 8 14 8 17 -2 11 -9 -6 -9 -3 -1 14
10 17 15 19 31 11 11 -6 20 -7 20 -2z"/>
</g>
</svg>
